<svg xmlns="http://www.w3.org/2000/svg" xmlns:xlink="http://www.w3.org/1999/xlink" width="24" height="24" viewBox="0 0 24 24"><path id="add-to-favorites-a" d="M6.59051236,21.9737051 C5.85541279,22.3633838 4.99367471,21.7372944 5.13712292,20.9177558 L6.19273679,14.8868942 L1.7938757,10.6282989 C1.19611097,10.049595 1.52526563,9.03656114 2.34902106,8.91973715 L8.41091396,8.06004686 L11.1017559,2.56050303 C11.4674166,1.81316566 12.5325834,1.81316566 12.8982441,2.56050303 L15.589086,8.06004686 L21.6509789,8.91973715 C22.4747344,9.03656114 22.803889,10.049595 22.2061243,10.6282989 L17.8072632,14.8868942 L18.8628771,20.9177558 C19.0063253,21.7372944 18.1445872,22.3633838 17.4094876,21.9737051 L12,19.1061179 L6.59051236,21.9737051 Z M7.45955204,19.2493905 L11.5316351,17.0907659 C11.8245714,16.9354794 12.1754286,16.9354794 12.4683649,17.0907659 L16.540448,19.2493905 L15.7458168,14.7095576 C15.6886529,14.3829725 15.7970737,14.0492875 16.0352822,13.8186747 L19.3465991,10.6129452 L14.783407,9.96579888 C14.4551415,9.91924466 14.171292,9.71301597 14.0255767,9.41520294 L12,5.27532854 L9.97442331,9.41520294 C9.82870799,9.71301597 9.54485855,9.91924466 9.21659301,9.96579888 L4.65340087,10.6129452 L7.96471777,13.8186747 C8.20292628,14.0492875 8.31134712,14.3829725 8.25418319,14.7095576 L7.45955204,19.2493905 Z"/></svg>