<svg xmlns="http://www.w3.org/2000/svg" xmlns:xlink="http://www.w3.org/1999/xlink" width="24" height="24" viewBox="0 0 24 24"><path id="box-office-a" d="M19,8 L5,8 L5,20 L19,20 L19,8 Z M21,8 L21,20 L22,20 C22.5522847,20 23,20.4477153 23,21 C23,21.5522847 22.5522847,22 22,22 L2,22 C1.44771525,22 1,21.5522847 1,21 C1,20.4477153 1.44771525,20 2,20 L3,20 L3,8 C1.8954305,8 1,7.1045695 1,6 L1,4 C1,2.8954305 1.8954305,2 3,2 L21,2 C22.1045695,2 23,2.8954305 23,4 L23,6 C23,7.1045695 22.1045695,8 21,8 Z M12,10 C14.7614237,10 17,12.2385763 17,15 L17,17 C17,17.5522847 16.5522847,18 16,18 L8,18 C7.44771525,18 7,17.5522847 7,17 L7,15 C7,12.2385763 9.23857625,10 12,10 Z M15,16 L15,15 C15,13.3431458 13.6568542,12 12,12 C10.3431458,12 9,13.3431458 9,15 L9,16 L15,16 Z M3,4 L3,6 L21,6 L21,4 L3,4 Z"/></svg>