<svg xmlns="http://www.w3.org/2000/svg" xmlns:xlink="http://www.w3.org/1999/xlink" width="24" height="24" viewBox="0 0 24 24"><path id="copy-a" d="M5,10 C4.44771525,10 4,10.4477153 4,11 L4,20 C4,20.5522847 4.44771525,21 5,21 L12,21 C12.5522847,21 13,20.5522847 13,20 L13,11 C13,10.4477153 12.5522847,10 12,10 L5,10 Z M5,8 L12,8 C13.6568542,8 15,9.34314575 15,11 L15,20 C15,21.6568542 13.6568542,23 12,23 L5,23 C3.34314575,23 2,21.6568542 2,20 L2,11 C2,9.34314575 3.34314575,8 5,8 Z M11,5 C11,5.55228475 10.5522847,6 10,6 C9.44771525,6 9,5.55228475 9,5 L9,4 C9,2.34314575 10.3431458,1 12,1 L19,1 C20.6568542,1 22,2.34314575 22,4 L22,13 C22,14.6568542 20.6568542,16 19,16 L18,16 C17.4477153,16 17,15.5522847 17,15 C17,14.4477153 17.4477153,14 18,14 L19,14 C19.5522847,14 20,13.5522847 20,13 L20,4 C20,3.44771525 19.5522847,3 19,3 L12,3 C11.4477153,3 11,3.44771525 11,4 L11,5 Z"/></svg>