<svg xmlns="http://www.w3.org/2000/svg" xmlns:xlink="http://www.w3.org/1999/xlink" width="24" height="24" viewBox="0 0 24 24"><path id="cash-withdrawal-abroad-a" d="M2.9846734,16 L3.58578644,16 L6.29289322,13.2928932 C6.4804296,13.1053568 6.73478351,13 7,13 L10,13 C10.6505712,13 11.1279292,13.6113889 10.9701425,14.2425356 L9.28077641,21 L9.5,21 L15.2,13.4 C15.3888544,13.1481942 15.6852427,13 16,13 L20,13 C20.5522847,13 21,12.5522847 21,12 C21,11.4477153 20.5522847,11 20,11 L16,11 C15.6852427,11 15.3888544,10.8518058 15.2,10.6 L9.5,3 L9.28077641,3 L10.9701425,9.75746437 C11.1279292,10.3886111 10.6505712,11 10,11 L7,11 C6.73478351,11 6.4804296,10.8946432 6.29289322,10.7071068 L3.58578644,8 L2.9846734,8 L2.9846734,16 Z M7.41421356,15 L4.70710678,17.7071068 C4.5195704,17.8946432 4.26521649,18 4,18 L1.9846734,18 C1.43238865,18 0.984673403,17.5522847 0.984673403,17 L0.984673403,7 C0.984673403,6.44771525 1.43238865,6 1.9846734,6 L4,6 C4.26521649,6 4.5195704,6.10535684 4.70710678,6.29289322 L7.41421356,9 L8.71922359,9 L7.0298575,2.24253563 C6.87207082,1.6113889 7.34942885,1 8,1 L10,1 C10.3147573,1 10.6111456,1.14819416 10.8,1.4 L16.5,9 L20,9 C21.6568542,9 23,10.3431458 23,12 C23,13.6568542 21.6568542,15 20,15 L16.5,15 L10.8,22.6 C10.6111456,22.8518058 10.3147573,23 10,23 L8,23 C7.34942885,23 6.87207082,22.3886111 7.0298575,21.7574644 L8.71922359,15 L7.41421356,15 Z"/></svg>