<svg xmlns="http://www.w3.org/2000/svg" xmlns:xlink="http://www.w3.org/1999/xlink" width="24" height="24" viewBox="0 0 24 24"><path id="delete-a" d="M7,6 L7,5 C7,3.34314575 8.34314575,2 10,2 L14,2 C15.6568542,2 17,3.34314575 17,5 L17,6 L21,6 C21.5522847,6 22,6.44771525 22,7 C22,7.55228475 21.5522847,8 21,8 L3,8 C2.44771525,8 2,7.55228475 2,7 C2,6.44771525 2.44771525,6 3,6 L7,6 Z M9,6 L15,6 L15,5 C15,4.44771525 14.5522847,4 14,4 L10,4 C9.44771525,4 9,4.44771525 9,5 L9,6 Z M18,11 C18,10.4477153 18.4477153,10 19,10 C19.5522847,10 20,10.4477153 20,11 L20,19 C20,20.6568542 18.6568542,22 17,22 L7,22 C5.34314575,22 4,20.6568542 4,19 L4,11 C4,10.4477153 4.44771525,10 5,10 C5.55228475,10 6,10.4477153 6,11 L6,19 C6,19.5522847 6.44771525,20 7,20 L17,20 C17.5522847,20 18,19.5522847 18,19 L18,11 Z M9,11 C9,10.4477153 9.44771525,10 10,10 C10.5522847,10 11,10.4477153 11,11 L11,17 C11,17.5522847 10.5522847,18 10,18 C9.44771525,18 9,17.5522847 9,17 L9,11 Z M13,11 C13,10.4477153 13.4477153,10 14,10 C14.5522847,10 15,10.4477153 15,11 L15,17 C15,17.5522847 14.5522847,18 14,18 C13.4477153,18 13,17.5522847 13,17 L13,11 Z"/></svg>