<svg xmlns="http://www.w3.org/2000/svg" xmlns:xlink="http://www.w3.org/1999/xlink" width="24" height="24" viewBox="0 0 24 24"><path id="edit-a" d="M13,8.41421356 L6.87403205,14.5401815 L5.58113883,18.4188612 L9.45981849,17.125968 L15.5857864,11 L13,8.41421356 Z M14.4142136,7 L17,9.58578644 L18.8786797,7.70710678 C19.2692039,7.31658249 19.2692039,6.68341751 18.8786797,6.29289322 L17.7071068,5.12132034 C17.3165825,4.73079605 16.6834175,4.73079605 16.2928932,5.12132034 L14.4142136,7 Z M20.2928932,4.87867966 C21.4644661,6.05025253 21.4644661,7.94974747 20.2928932,9.12132034 L10.7071068,18.7071068 C10.5973319,18.8168816 10.4635062,18.8995905 10.3162278,18.9486833 L4.31622777,20.9486833 C3.53446974,21.2092693 2.79073069,20.4655303 3.0513167,19.6837722 L5.0513167,13.6837722 C5.10040951,13.5364938 5.18311836,13.4026681 5.29289322,13.2928932 L14.8786797,3.70710678 C16.0502525,2.53553391 17.9497475,2.53553391 19.1213203,3.70710678 L20.2928932,4.87867966 Z"/></svg>