<svg xmlns="http://www.w3.org/2000/svg" xmlns:xlink="http://www.w3.org/1999/xlink" width="24" height="24" viewBox="0 0 24 24"><path id="history-a" d="M4.0111129,11.5746735 L4.29289322,11.2928932 C4.68341751,10.9023689 5.31658249,10.9023689 5.70710678,11.2928932 C6.09763107,11.6834175 6.09763107,12.3165825 5.70710678,12.7071068 L3.70710678,14.7071068 C3.31658249,15.0976311 2.68341751,15.0976311 2.29289322,14.7071068 L0.292893219,12.7071068 C-0.0976310729,12.3165825 -0.0976310729,11.6834175 0.292893219,11.2928932 C0.683417511,10.9023689 1.31658249,10.9023689 1.70710678,11.2928932 L2.00809628,11.5938827 C2.22117253,6.25933014 6.61317634,2 12,2 C17.5228475,2 22,6.4771525 22,12 C22,17.5228475 17.5228475,22 12,22 C9.12810523,22 6.38946033,20.7577639 4.50720746,18.6695217 C4.13744086,18.2592887 4.17024535,17.6269741 4.58047834,17.2572075 C4.99071133,16.8874409 5.62302593,16.9202454 5.99279254,17.3304783 C7.49925124,19.0018004 9.69989111,20 12,20 C16.418278,20 20,16.418278 20,12 C20,7.581722 16.418278,4 12,4 C7.72440069,4 4.23220024,7.35412926 4.0111129,11.5746735 Z M12,12 L15,12 C15.5522847,12 16,12.4477153 16,13 C16,13.5522847 15.5522847,14 15,14 L11,14 C10.4477153,14 10,13.5522847 10,13 L10,9 C10,8.44771525 10.4477153,8 11,8 C11.5522847,8 12,8.44771525 12,9 L12,12 Z"/></svg>