<svg xmlns="http://www.w3.org/2000/svg" xmlns:xlink="http://www.w3.org/1999/xlink" width="24" height="24" viewBox="0 0 24 24"><path id="limits-a" d="M5.58578644,13 L1,13 C0.44771525,13 0,12.5522847 0,12 C0,11.4477153 0.44771525,11 1,11 L5.58578644,11 L4.29289322,9.70710678 C3.90236893,9.31658249 3.90236893,8.68341751 4.29289322,8.29289322 C4.68341751,7.90236893 5.31658249,7.90236893 5.70710678,8.29289322 L8.70710678,11.2928932 C9.09763107,11.6834175 9.09763107,12.3165825 8.70710678,12.7071068 L5.70710678,15.7071068 C5.31658249,16.0976311 4.68341751,16.0976311 4.29289322,15.7071068 C3.90236893,15.3165825 3.90236893,14.6834175 4.29289322,14.2928932 L5.58578644,13 Z M18.4142136,13 L19.7071068,14.2928932 C20.0976311,14.6834175 20.0976311,15.3165825 19.7071068,15.7071068 C19.3165825,16.0976311 18.6834175,16.0976311 18.2928932,15.7071068 L15.2928932,12.7071068 C14.9023689,12.3165825 14.9023689,11.6834175 15.2928932,11.2928932 L18.2928932,8.29289322 C18.6834175,7.90236893 19.3165825,7.90236893 19.7071068,8.29289322 C20.0976311,8.68341751 20.0976311,9.31658249 19.7071068,9.70710678 L18.4142136,11 L23,11 C23.5522847,11 24,11.4477153 24,12 C24,12.5522847 23.5522847,13 23,13 L18.4142136,13 Z M11,3 C11,2.44771525 11.4477153,2 12,2 C12.5522847,2 13,2.44771525 13,3 L13,21 C13,21.5522847 12.5522847,22 12,22 C11.4477153,22 11,21.5522847 11,21 L11,3 Z"/></svg>