<svg xmlns="http://www.w3.org/2000/svg" xmlns:xlink="http://www.w3.org/1999/xlink" width="24" height="24" viewBox="0 0 24 24"><path id="pay-back-a" d="M4.41421356,20 L5.70710678,21.2928932 C6.09763107,21.6834175 6.09763107,22.3165825 5.70710678,22.7071068 C5.31658249,23.0976311 4.68341751,23.0976311 4.29289322,22.7071068 L1.29289322,19.7071068 C0.902368927,19.3165825 0.902368927,18.6834175 1.29289322,18.2928932 L4.29289322,15.2928932 C4.68341751,14.9023689 5.31658249,14.9023689 5.70710678,15.2928932 C6.09763107,15.6834175 6.09763107,16.3165825 5.70710678,16.7071068 L4.41421356,18 L9,18 C9.55228475,18 10,18.4477153 10,19 C10,19.5522847 9.55228475,20 9,20 L4.41421356,20 Z M19,12 L14,12 C12.3431458,12 11,10.6568542 11,9 L11,4 L6,4 C5.44771525,4 5,4.44771525 5,5 L5,12 C5,12.5522847 4.55228475,13 4,13 C3.44771525,13 3,12.5522847 3,12 L3,5 C3,3.34314575 4.34314575,2 6,2 L13.1715729,2 C13.9672223,2 14.7302841,2.31607052 15.2928932,2.87867966 L20.1213203,7.70710678 C20.6839295,8.26971592 21,9.03277766 21,9.82842712 L21,19 C21,20.6568542 19.6568542,22 18,22 L13,22 C12.4477153,22 12,21.5522847 12,21 C12,20.4477153 12.4477153,20 13,20 L18,20 C18.5522847,20 19,19.5522847 19,19 L19,12 Z M19,10 L19,9.82842712 C19,9.56321063 18.8946432,9.30885672 18.7071068,9.12132034 L13.8786797,4.29289322 C13.6911433,4.10535684 13.4367894,4 13.1715729,4 L13,4 L13,9 C13,9.55228475 13.4477153,10 14,10 L19,10 Z"/></svg>