<svg xmlns="http://www.w3.org/2000/svg" xmlns:xlink="http://www.w3.org/1999/xlink" width="24" height="24" viewBox="0 0 24 24"><path id="post-box-a" d="M16,8 L16,11 C16,11.5522847 15.5522847,12 15,12 L9,12 C8.44771525,12 8,11.5522847 8,11 L8,8 L7,8 C6.44771525,8 6,7.55228475 6,7 C6,6.44771525 6.44771525,6 7,6 L17,6 C17.5522847,6 18,6.44771525 18,7 C18,7.55228475 17.5522847,8 17,8 L16,8 Z M10,8 L10,10 L14,10 L14,8 L10,8 Z M22,12.9771715 C22.0003334,12.9920482 22.0003321,13.0069039 22,13.0217279 L22,19 C22,20.6568542 20.6568542,22 19,22 L5,22 C3.34314575,22 2,20.6568542 2,19 L2,13.0217279 C1.99966792,13.0069039 1.99966655,12.9920482 2,12.9771715 L2,5 C2,3.34314575 3.34314575,2 5,2 L19,2 C20.6568542,2 22,3.34314575 22,5 L22,12.9771715 Z M20,12.3501269 L20,5 C20,4.44771525 19.5522847,4 19,4 L5,4 C4.44771525,4 4,4.44771525 4,5 L4,12.3501269 L11.5938615,15.7251765 C11.8524269,15.8400944 12.1475731,15.8400944 12.4061385,15.7251765 L20,12.3501269 Z M20,14.538762 L13.2184154,17.5527996 C12.4427193,17.8975534 11.5572807,17.8975534 10.7815846,17.5527996 L4,14.538762 L4,19 C4,19.5522847 4.44771525,20 5,20 L19,20 C19.5522847,20 20,19.5522847 20,19 L20,14.538762 Z"/></svg>