<svg xmlns="http://www.w3.org/2000/svg" xmlns:xlink="http://www.w3.org/1999/xlink" width="24" height="24" viewBox="0 0 24 24"><path id="print-a" d="M5,6 L5,4 C5,2.8954305 5.8954305,2 7,2 L17,2 C18.1045695,2 19,2.8954305 19,4 L19,6 C20.6568542,6 22,7.34314575 22,9 L22,15 C22,16.6568542 20.6568542,18 19,18 L18,18 L18,21 C18,21.5522847 17.5522847,22 17,22 L7,22 C6.44771525,22 6,21.5522847 6,21 L6,18 L5,18 C3.34314575,18 2,16.6568542 2,15 L2,9 C2,7.34314575 3.34314575,6 5,6 Z M7,6 L17,6 L17,4 L7,4 L7,6 Z M18,16 L19,16 C19.5522847,16 20,15.5522847 20,15 L20,9 C20,8.44771525 19.5522847,8 19,8 L5,8 C4.44771525,8 4,8.44771525 4,9 L4,15 C4,15.5522847 4.44771525,16 5,16 L6,16 L6,13 C6,12.4477153 6.44771525,12 7,12 L17,12 C17.5522847,12 18,12.4477153 18,13 L18,16 Z M8,14 L8,20 L16,20 L16,14 L8,14 Z"/></svg>