<svg xmlns="http://www.w3.org/2000/svg" xmlns:xlink="http://www.w3.org/1999/xlink" width="24" height="24" viewBox="0 0 24 24"><path id="pin-a" d="M11,10.2338096 L11,9 C11,8.44771525 11.4477153,8 12,8 C12.5522847,8 13,8.44771525 13,9 L13,10.2338096 L13.9855042,9.64250707 C14.4590845,9.35835891 15.0733448,9.51192398 15.3574929,9.98550424 C15.6416411,10.4590845 15.488076,11.0733448 15.0144958,11.3574929 L13.9436506,12 L15.0144958,12.6425071 C15.488076,12.9266552 15.6416411,13.5409155 15.3574929,14.0144958 C15.0733448,14.488076 14.4590845,14.6416411 13.9855042,14.3574929 L13,13.7661904 L13,15 C13,15.5522847 12.5522847,16 12,16 C11.4477153,16 11,15.5522847 11,15 L11,13.7661904 L10.0144958,14.3574929 C9.54091549,14.6416411 8.92665523,14.488076 8.64250707,14.0144958 C8.35835891,13.5409155 8.51192398,12.9266552 8.98550424,12.6425071 L10.0563494,12 L8.98550424,11.3574929 C8.51192398,11.0733448 8.35835891,10.4590845 8.64250707,9.98550424 C8.92665523,9.51192398 9.54091549,9.35835891 10.0144958,9.64250707 L11,10.2338096 Z M12,22 C6.4771525,22 2,17.5228475 2,12 C2,6.4771525 6.4771525,2 12,2 C17.5228475,2 22,6.4771525 22,12 C22,17.5228475 17.5228475,22 12,22 Z M12,20 C16.418278,20 20,16.418278 20,12 C20,7.581722 16.418278,4 12,4 C7.581722,4 4,7.581722 4,12 C4,16.418278 7.581722,20 12,20 Z"/></svg>