<svg xmlns="http://www.w3.org/2000/svg" xmlns:xlink="http://www.w3.org/1999/xlink" width="24" height="24" viewBox="0 0 24 24"><path id="repeat-payment-a" d="M5,13.4142136 L5,19 C5,19.5522847 5.44771525,20 6,20 L18,20 C18.5522847,20 19,19.5522847 19,19 L19,12 L14,12 C12.3431458,12 11,10.6568542 11,9 L11,4 L6,4 C5.44771525,4 5,4.44771525 5,5 L5,7 C5,7.55228475 4.55228475,8 4,8 C3.44771525,8 3,7.55228475 3,7 L3,5 C3,3.34314575 4.34314575,2 6,2 L13.1715729,2 C13.9672223,2 14.7302841,2.31607052 15.2928932,2.87867966 L20.1213203,7.70710678 C20.6839295,8.26971592 21,9.03277766 21,9.82842712 L21,19 C21,20.6568542 19.6568542,22 18,22 L6,22 C4.34314575,22 3,20.6568542 3,19 L3,13.4142136 L1.70710678,14.7071068 C1.31658249,15.0976311 0.683417511,15.0976311 0.292893219,14.7071068 C-0.0976310729,14.3165825 -0.0976310729,13.6834175 0.292893219,13.2928932 L3.29289322,10.2928932 C3.68341751,9.90236893 4.31658249,9.90236893 4.70710678,10.2928932 L7.70710678,13.2928932 C8.09763107,13.6834175 8.09763107,14.3165825 7.70710678,14.7071068 C7.31658249,15.0976311 6.68341751,15.0976311 6.29289322,14.7071068 L5,13.4142136 Z M19,10 L19,9.82842712 C19,9.56321064 18.8946432,9.30885672 18.7071068,9.12132034 L13.8786797,4.29289322 C13.6911433,4.10535684 13.4367894,4 13.1715729,4 L13,4 L13,9 C13,9.55228475 13.4477153,10 14,10 L19,10 Z"/></svg>