<svg xmlns="http://www.w3.org/2000/svg" xmlns:xlink="http://www.w3.org/1999/xlink" width="24" height="24" viewBox="0 0 24 24"><path id="salary-project-a" d="M4,15 L4,19 C4,19.5522847 4.44771525,20 5,20 L19,20 C19.5522847,20 20,19.5522847 20,19 L20,15 L15,15 C15,16.1045695 14.1045695,17 13,17 L11,17 C9.8954305,17 9,16.1045695 9,15 L4,15 Z M4,13 L9,13 C9,11.8954305 9.8954305,11 11,11 L13,11 C14.1045695,11 15,11.8954305 15,13 L20,13 L20,9 C20,8.44771525 19.5522847,8 19,8 L5,8 C4.44771525,8 4,8.44771525 4,9 L4,13 Z M7,6 L7,5 C7,3.34314575 8.34314575,2 10,2 L14,2 C15.6568542,2 17,3.34314575 17,5 L17,6 L19,6 C20.6568542,6 22,7.34314575 22,9 L22,19 C22,20.6568542 20.6568542,22 19,22 L5,22 C3.34314575,22 2,20.6568542 2,19 L2,9 C2,7.34314575 3.34314575,6 5,6 L7,6 Z M9,6 L15,6 L15,5 C15,4.44771525 14.5522847,4 14,4 L10,4 C9.44771525,4 9,4.44771525 9,5 L9,6 Z M11,13 L11,15 L13,15 L13,13 L11,13 Z"/></svg>