<svg xmlns="http://www.w3.org/2000/svg" xmlns:xlink="http://www.w3.org/1999/xlink" width="24" height="24" viewBox="0 0 24 24"><path id="tariff-a" d="M17.8292943,3 L18,3 C19.6444783,3 21,4.28021497 21,5.88888889 L21,19.1111111 C21,20.719785 19.6444783,22 18,22 L6,22 C4.35552173,22 3,20.719785 3,19.1111111 L3,5.88888889 C3,4.28021497 4.35552173,3 6,3 L6.17070571,3 C6.58254212,1.83480763 7.69378117,1 9,1 L15,1 C16.3062188,1 17.4174579,1.83480763 17.8292943,3 Z M6.17070571,5 L6,5 C5.43533927,5 5,5.41115375 5,5.88888889 L5,19.1111111 C5,19.5888462 5.43533927,20 6,20 L18,20 C18.5646607,20 19,19.5888462 19,19.1111111 L19,5.88888889 C19,5.41115375 18.5646607,5 18,5 L17.8292943,5 C17.4174579,6.16519237 16.3062188,7 15,7 L9,7 C7.69378117,7 6.58254212,6.16519237 6.17070571,5 Z M13,13 L13,16 C13,16.5522847 12.5522847,17 12,17 C11.4477153,17 11,16.5522847 11,16 L11,13 L10,13 C9.44771525,13 9,12.5522847 9,12 C9,11.4477153 9.44771525,11 10,11 L14,11 C14.5522847,11 15,11.4477153 15,12 C15,12.5522847 14.5522847,13 14,13 L13,13 Z M9,3 C8.44771525,3 8,3.44771525 8,4 C8,4.55228475 8.44771525,5 9,5 L15,5 C15.5522847,5 16,4.55228475 16,4 C16,3.44771525 15.5522847,3 15,3 L9,3 Z"/></svg>