<svg xmlns="http://www.w3.org/2000/svg" xmlns:xlink="http://www.w3.org/1999/xlink" width="24" height="24" viewBox="0 0 24 24"><path id="transfer-on-card-a" d="M20,11 L4,11 L4,17 C4,17.5522847 4.44771525,18 5,18 L9,18 C9.55228475,18 10,18.4477153 10,19 C10,19.5522847 9.55228475,20 9,20 L5,20 C3.34314575,20 2,18.6568542 2,17 L2,7 C2,5.34314575 3.34314575,4 5,4 L19,4 C20.6568542,4 22,5.34314575 22,7 L22,12 C22,12.5522847 21.5522847,13 21,13 C20.4477153,13 20,12.5522847 20,12 L20,11 Z M20,9 L20,7 C20,6.44771525 19.5522847,6 19,6 L5,6 C4.44771525,6 4,6.44771525 4,7 L4,9 L20,9 Z M15.4142136,18 L21,18 C21.5522847,18 22,18.4477153 22,19 C22,19.5522847 21.5522847,20 21,20 L15.4142136,20 L16.7071068,21.2928932 C17.0976311,21.6834175 17.0976311,22.3165825 16.7071068,22.7071068 C16.3165825,23.0976311 15.6834175,23.0976311 15.2928932,22.7071068 L12.2928932,19.7071068 C11.9023689,19.3165825 11.9023689,18.6834175 12.2928932,18.2928932 L15.2928932,15.2928932 C15.6834175,14.9023689 16.3165825,14.9023689 16.7071068,15.2928932 C17.0976311,15.6834175 17.0976311,16.3165825 16.7071068,16.7071068 L15.4142136,18 Z"/></svg>