<svg xmlns="http://www.w3.org/2000/svg" xmlns:xlink="http://www.w3.org/1999/xlink" width="24" height="24" viewBox="0 0 24 24"><path id="undo-a" d="M2.00809628,11.5938827 C2.22117253,6.25933014 6.61317634,2 12,2 C17.5228475,2 22,6.4771525 22,12 C22,17.5228475 17.5228475,22 12,22 C11.4477153,22 11,21.5522847 11,21 C11,20.4477153 11.4477153,20 12,20 C16.418278,20 20,16.418278 20,12 C20,7.581722 16.418278,4 12,4 C7.72440069,4 4.23220024,7.35412926 4.0111129,11.5746735 L4.29289322,11.2928932 C4.68341751,10.9023689 5.31658249,10.9023689 5.70710678,11.2928932 C6.09763107,11.6834175 6.09763107,12.3165825 5.70710678,12.7071068 L3.70710678,14.7071068 C3.31658249,15.0976311 2.68341751,15.0976311 2.29289322,14.7071068 L0.292893219,12.7071068 C-0.0976310729,12.3165825 -0.0976310729,11.6834175 0.292893219,11.2928932 C0.683417511,10.9023689 1.31658249,10.9023689 1.70710678,11.2928932 L2.00809628,11.5938827 Z"/></svg>