<svg xmlns="http://www.w3.org/2000/svg" xmlns:xlink="http://www.w3.org/1999/xlink" width="24" height="24" viewBox="0 0 24 24"><path id="attach-file-a" d="M18.2928932,14.2928932 C18.6834175,13.9023689 19.3165825,13.9023689 19.7071068,14.2928932 C20.0976311,14.6834175 20.0976311,15.3165825 19.7071068,15.7071068 L14.7071068,20.7071068 C12.08145,23.3327636 7.05123252,23.4654461 4.29289322,20.7071068 C1.5335064,17.94772 1.65839004,12.9169888 4.28301105,10.2923681 L11.2928932,3.29289322 C13.2108311,1.37495532 16.6512282,1.23701459 18.7071068,3.29289322 C20.7629854,5.34877184 20.6250447,8.78916889 18.7071068,10.7071068 L11.7071068,17.7071068 C10.4965359,18.9176776 8.65712524,19.0713388 7.29289322,17.7071068 C5.9286612,16.3428748 6.08232237,14.5034641 7.29289322,13.2928932 L14.2928932,6.29289322 C14.6834175,5.90236893 15.3165825,5.90236893 15.7071068,6.29289322 C16.0976311,6.68341751 16.0976311,7.31658249 15.7071068,7.70710678 L8.70710678,14.7071068 C8.23000498,15.1842086 8.18131143,15.7670979 8.70710678,16.2928932 C9.23290214,16.8186886 9.81579142,16.769995 10.2928932,16.2928932 L17.2928932,9.29289322 C18.4539972,8.13178921 18.5412555,5.95546909 17.2928932,4.70710678 C16.0445309,3.45874447 13.8682108,3.54600277 12.7065813,4.70763186 L5.69669914,11.7071068 C3.83837672,13.5654292 3.74490723,17.3306937 5.70710678,19.2928932 C7.66722198,21.2530084 11.4320841,21.1537023 13.2928932,19.2928932 L18.2928932,14.2928932 Z"/></svg>