<svg xmlns="http://www.w3.org/2000/svg" xmlns:xlink="http://www.w3.org/1999/xlink" width="24" height="24" viewBox="0 0 24 24"><path id="add-card-a" d="M19,18 L21,18 C21.5522847,18 22,18.4477153 22,19 C22,19.5522847 21.5522847,20 21,20 L19,20 L19,22 C19,22.5522847 18.5522847,23 18,23 C17.4477153,23 17,22.5522847 17,22 L17,20 L15,20 C14.4477153,20 14,19.5522847 14,19 C14,18.4477153 14.4477153,18 15,18 L17,18 L17,16 C17,15.4477153 17.4477153,15 18,15 C18.5522847,15 19,15.4477153 19,16 L19,18 Z M20,11 L4,11 L4,17 C4,17.5522847 4.44771525,18 5,18 L11,18 C11.5522847,18 12,18.4477153 12,19 C12,19.5522847 11.5522847,20 11,20 L5,20 C3.34314575,20 2,18.6568542 2,17 L2,7 C2,5.34314575 3.34314575,4 5,4 L19,4 C20.6568542,4 22,5.34314575 22,7 L22,13 C22,13.5522847 21.5522847,14 21,14 C20.4477153,14 20,13.5522847 20,13 L20,11 Z M20,9 L20,7 C20,6.44771525 19.5522847,6 19,6 L5,6 C4.44771525,6 4,6.44771525 4,7 L4,9 L20,9 Z"/></svg>