<svg xmlns="http://www.w3.org/2000/svg" xmlns:xlink="http://www.w3.org/1999/xlink" width="24" height="24" viewBox="0 0 24 24"><path id="cash-lodgements-a" d="M11,13.4142136 L10.7071068,13.7071068 C10.3165825,14.0976311 9.68341751,14.0976311 9.29289322,13.7071068 C8.90236893,13.3165825 8.90236893,12.6834175 9.29289322,12.2928932 L11.2928932,10.2928932 C11.6834175,9.90236893 12.3165825,9.90236893 12.7071068,10.2928932 L14.7071068,12.2928932 C15.0976311,12.6834175 15.0976311,13.3165825 14.7071068,13.7071068 C14.3165825,14.0976311 13.6834175,14.0976311 13.2928932,13.7071068 L13,13.4142136 L13,17.5 C13,18.0522847 12.5522847,18.5 12,18.5 C11.4477153,18.5 11,18.0522847 11,17.5 L11,13.4142136 Z M19,6 L19,19 C19,20.6568542 17.6568542,22 16,22 L8,22 C6.34314575,22 5,20.6568542 5,19 L5,6 L19,6 Z M7,8 L7,19 C7,19.5522847 7.44771525,20 8,20 L16,20 C16.5522847,20 17,19.5522847 17,19 L17,8 L7,8 Z M3,11 C3,11.5522847 2.55228475,12 2,12 C1.44771525,12 1,11.5522847 1,11 L1,5 C1,3.34314575 2.34314575,2 4,2 L20,2 C21.6568542,2 23,3.34314575 23,5 L23,12 C23,12.5522847 22.5522847,13 22,13 C21.4477153,13 21,12.5522847 21,12 L21,5 C21,4.44771525 20.5522847,4 20,4 L4,4 C3.44771525,4 3,4.44771525 3,5 L3,11 Z"/></svg>