<svg xmlns="http://www.w3.org/2000/svg" xmlns:xlink="http://www.w3.org/1999/xlink" width="24" height="24" viewBox="0 0 24 24"><path id="close-card-a" d="M4,9 L8,9 C8.55228475,9 9,9.44771525 9,10 C9,10.5522847 8.55228475,11 8,11 L4,11 L4,17 C4,17.5522847 4.44771525,18 5,18 L11,18 C11.5522847,18 12,18.4477153 12,19 C12,19.5522847 11.5522847,20 11,20 L5,20 C3.34314575,20 2,18.6568542 2,17 L2,7 C2,5.34314575 3.34314575,4 5,4 L6,4 C6.55228475,4 7,4.44771525 7,5 C7,5.55228475 6.55228475,6 6,6 L5,6 C4.44771525,6 4,6.44771525 4,7 L4,9 Z M20,9 L20,7 C20,6.44771525 19.5522847,6 19,6 L14,6 C13.4477153,6 13,5.55228475 13,5 C13,4.44771525 13.4477153,4 14,4 L19,4 C20.6568542,4 22,5.34314575 22,7 L22,17 C22,18.6568542 20.6568542,20 19,20 C18.4477153,20 18,19.5522847 18,19 C18,18.4477153 18.4477153,18 19,18 C19.5522847,18 20,17.5522847 20,17 L20,11 L16,11 C15.4477153,11 15,10.5522847 15,10 C15,9.44771525 15.4477153,9 16,9 L20,9 Z M8.06799533,3.36244626 C7.86782179,2.84771429 8.12282177,2.26816887 8.63755374,2.06799533 C9.15228571,1.86782179 9.73183113,2.12282177 9.93200467,2.63755374 L16.9320047,20.6375537 C17.1321782,21.1522857 16.8771782,21.7318311 16.3624463,21.9320047 C15.8477143,22.1321782 15.2681689,21.8771782 15.0679953,21.3624463 L8.06799533,3.36244626 Z"/></svg>