<svg xmlns="http://www.w3.org/2000/svg" xmlns:xlink="http://www.w3.org/1999/xlink" width="24" height="24" viewBox="0 0 24 24"><path id="currency-exchange-a" d="M13,7 L15,7 C15.5522847,7 16,7.44771525 16,8 C16,8.55228475 15.5522847,9 15,9 L12,9 C10.4870342,9 10,9.32468946 10,10 C10,10.6755783 10.4920306,11.0035986 12.0084704,11.0072708 C14.4892984,11.0012388 16,12.0083732 16,14 C16,15.7082848 14.8865985,16.6933852 13,16.9389306 L13,17 C13,17.5522847 12.5522847,18 12,18 C11.4477153,18 11,17.5522847 11,17 L9,17 C8.44771525,17 8,16.5522847 8,16 C8,15.4477153 8.44771525,15 9,15 L12,15 C13.5129658,15 14,14.6753105 14,14 C14,13.3249601 13.5179695,13.0036065 12.008488,13.007265 C9.51523733,13.0012466 8,11.9910884 8,10 C8,8.29171517 9.11340153,7.30661478 11,7.06106938 L11,7 C11,6.44771525 11.4477153,6 12,6 C12.5522847,6 13,6.44771525 13,7 Z M19.9888871,12.4253265 L19.7071068,12.7071068 C19.3165825,13.0976311 18.6834175,13.0976311 18.2928932,12.7071068 C17.9023689,12.3165825 17.9023689,11.6834175 18.2928932,11.2928932 L20.2928932,9.29289322 C20.6834175,8.90236893 21.3165825,8.90236893 21.7071068,9.29289322 L23.7071068,11.2928932 C24.0976311,11.6834175 24.0976311,12.3165825 23.7071068,12.7071068 C23.3165825,13.0976311 22.6834175,13.0976311 22.2928932,12.7071068 L21.9919037,12.4061173 C21.7788275,17.7406699 17.3868237,22 12,22 C9.12931713,22 6.39605369,20.7603299 4.50796358,18.6703596 C4.13773421,18.2605442 4.16982503,17.6281929 4.57964043,17.2579636 C4.98945583,16.8877342 5.62180705,16.919825 5.99203642,17.3296404 C7.50463578,19.0039714 9.70071076,20 12,20 C16.2755993,20 19.7677998,16.6458707 19.9888871,12.4253265 Z M4.0111129,11.5746735 L4.29289322,11.2928932 C4.68341751,10.9023689 5.31658249,10.9023689 5.70710678,11.2928932 C6.09763107,11.6834175 6.09763107,12.3165825 5.70710678,12.7071068 L3.70710678,14.7071068 C3.31658249,15.0976311 2.68341751,15.0976311 2.29289322,14.7071068 L0.292893219,12.7071068 C-0.0976310729,12.3165825 -0.0976310729,11.6834175 0.292893219,11.2928932 C0.683417511,10.9023689 1.31658249,10.9023689 1.70710678,11.2928932 L2.00809628,11.5938827 C2.22117253,6.25933014 6.61317634,2 12,2 C14.9048294,2 17.6185556,3.22718792 19.4965861,5.33471124 C19.864015,5.74703938 19.8276169,6.3791573 19.4152888,6.74658614 C19.0029606,7.11401498 18.3708427,7.0776169 18.0034139,6.66528876 C16.5033168,4.98188194 14.3320449,4 12,4 C7.72440069,4 4.23220024,7.35412926 4.0111129,11.5746735 Z"/></svg>