<svg xmlns="http://www.w3.org/2000/svg" xmlns:xlink="http://www.w3.org/1999/xlink" width="24" height="24" viewBox="0 0 24 24"><path id="cash-withdrawal-a" d="M11,14.5857864 L11,11 C11,10.4477153 11.4477153,10 12,10 C12.5522847,10 13,10.4477153 13,11 L13,14.5857864 L13.2928932,14.2928932 C13.6834175,13.9023689 14.3165825,13.9023689 14.7071068,14.2928932 C15.0976311,14.6834175 15.0976311,15.3165825 14.7071068,15.7071068 L12.7071068,17.7071068 C12.3165825,18.0976311 11.6834175,18.0976311 11.2928932,17.7071068 L9.29289322,15.7071068 C8.90236893,15.3165825 8.90236893,14.6834175 9.29289322,14.2928932 C9.68341751,13.9023689 10.3165825,13.9023689 10.7071068,14.2928932 L11,14.5857864 Z M19,6 L19,19 C19,20.6568542 17.6568542,22 16,22 L8,22 C6.34314575,22 5,20.6568542 5,19 L5,6 L19,6 Z M7,8 L7,19 C7,19.5522847 7.44771525,20 8,20 L16,20 C16.5522847,20 17,19.5522847 17,19 L17,8 L7,8 Z M3,11 C3,11.5522847 2.55228475,12 2,12 C1.44771525,12 1,11.5522847 1,11 L1,5 C1,3.34314575 2.34314575,2 4,2 L20,2 C21.6568542,2 23,3.34314575 23,5 L23,12 C23,12.5522847 22.5522847,13 22,13 C21.4477153,13 21,12.5522847 21,12 L21,5 C21,4.44771525 20.5522847,4 20,4 L4,4 C3.44771525,4 3,4.44771525 3,5 L3,11 Z"/></svg>