<svg xmlns="http://www.w3.org/2000/svg" xmlns:xlink="http://www.w3.org/1999/xlink" width="24" height="24" viewBox="0 0 24 24"><path id="change-direction-a" d="M8,5.41421356 L8,15 C8,15.5522847 7.55228475,16 7,16 C6.44771525,16 6,15.5522847 6,15 L6,5.41421356 L4.70710678,6.70710678 C4.31658249,7.09763107 3.68341751,7.09763107 3.29289322,6.70710678 C2.90236893,6.31658249 2.90236893,5.68341751 3.29289322,5.29289322 L6.29289322,2.29289322 C6.68341751,1.90236893 7.31658249,1.90236893 7.70710678,2.29289322 L10.7071068,5.29289322 C11.0976311,5.68341751 11.0976311,6.31658249 10.7071068,6.70710678 C10.3165825,7.09763107 9.68341751,7.09763107 9.29289322,6.70710678 L8,5.41421356 Z M16,18.5857864 L16,9 C16,8.44771525 16.4477153,8 17,8 C17.5522847,8 18,8.44771525 18,9 L18,18.5857864 L19.2928932,17.2928932 C19.6834175,16.9023689 20.3165825,16.9023689 20.7071068,17.2928932 C21.0976311,17.6834175 21.0976311,18.3165825 20.7071068,18.7071068 L17.7071068,21.7071068 C17.3165825,22.0976311 16.6834175,22.0976311 16.2928932,21.7071068 L13.2928932,18.7071068 C12.9023689,18.3165825 12.9023689,17.6834175 13.2928932,17.2928932 C13.6834175,16.9023689 14.3165825,16.9023689 14.7071068,17.2928932 L16,18.5857864 Z"/></svg>