<svg xmlns="http://www.w3.org/2000/svg" xmlns:xlink="http://www.w3.org/1999/xlink" width="24" height="24" viewBox="0 0 24 24"><path id="currency-operations-a" d="M4.06189375,13 C4.47020704,16.2744111 6.85737821,18.9342798 9.9889008,19.7450997 C8.82391641,17.6682367 8.1693869,15.4163594 8.02882302,13 L4.06189375,13 Z M4.06189375,11 L8.02882302,11 C8.1693869,8.58364061 8.82391641,6.33176326 9.9889008,4.25490025 C6.85737821,5.06572019 4.47020704,7.72558893 4.06189375,11 Z M13.9673498,11 C13.8189632,8.75402999 13.1645869,6.68420093 12,4.77785048 C10.8354131,6.68420093 10.1810368,8.75402999 10.0326502,11 L13.9673498,11 Z M13.9673498,13 L10.0326502,13 C10.1810368,15.24597 10.8354131,17.3157991 12,19.2221495 C13.1645869,17.3157991 13.8189632,15.24597 13.9673498,13 Z M19.9381062,11 C19.529793,7.72558893 17.1426218,5.06572019 14.0110992,4.25490025 C15.1760836,6.33176326 15.8306131,8.58364061 15.971177,11 L19.9381062,11 Z M19.9381062,13 L15.971177,13 C15.8306131,15.4163594 15.1760836,17.6682367 14.0110992,19.7450997 C17.1426218,18.9342798 19.529793,16.2744111 19.9381062,13 Z M12,22 C6.4771525,22 2,17.5228475 2,12 C2,6.4771525 6.4771525,2 12,2 C17.5228475,2 22,6.4771525 22,12 C22,17.5228475 17.5228475,22 12,22 Z"/></svg>