<svg xmlns="http://www.w3.org/2000/svg" xmlns:xlink="http://www.w3.org/1999/xlink" width="24" height="24" viewBox="0 0 24 24"><path id="envelope-a" d="M22.000046,6.99930118 C22.000046,6.99930583 22.000046,6.99931049 22.000046,6.99931515 L22.000046,18 C22.000046,19.6568542 20.656894,21 19.0000322,21 L4.99996782,21 C3.34310596,21 1.99995403,19.6568542 1.99995403,18 L1.99995403,6.99931824 C1.99995403,6.9993084 1.99995403,6.99929856 1.99995403,6.99928872 L1.99995403,6 C1.99995403,4.34314575 3.34310596,3 4.99996782,3 L19.0000322,3 C20.656894,3 22.000046,4.34314575 22.000046,6 L22.000046,6.99930428 Z M20,6.51091619 L20,6 C20,5.44771525 19.5522847,5 19,5 L5,5 C4.44771525,5 4,5.44771525 4,6 L4,6.51091619 L12,12.7331384 L20,6.51091619 Z M20,9.04463936 L13.2278812,14.3118429 C12.5056603,14.8735703 11.4943397,14.8735703 10.7721188,14.3118429 L4,9.04463936 L4,18 C4,18.5522847 4.44771525,19 5,19 L19,19 C19.5522847,19 20,18.5522847 20,18 L20,9.04463936 Z"/></svg>