<svg xmlns="http://www.w3.org/2000/svg" xmlns:xlink="http://www.w3.org/1999/xlink" width="24" height="24" viewBox="0 0 24 24"><path id="lock-a" d="M15,10 L15,6 C15,4.34314575 13.6568542,3 12,3 C10.3431458,3 9,4.34314575 9,6 L9,9 L12,9 C12.5522847,9 13,9.44771525 13,10 C13,10.5522847 12.5522847,11 12,11 L5,11 C4.44771526,11 4.00000001,11.4477152 4,12 L4,20 C4,20.5522848 4.44771525,21 5,21 L19,21 C19.5522847,21 20,20.5522847 20,20 L20,12 C20,11.4477153 19.5522847,11 19,11 L16,11 C15.4477152,11 15,10.5522847 15,10 Z M17,9 L19,9 C20.6568542,9 22,10.3431458 22,12 L22,20 C22,21.6568542 20.6568542,23 19,23 L5,23 C3.34314575,23 2,21.6568542 2,20 L2,12 C2.00000004,10.3431457 3.34314577,9 5,9 L7,9 L7,6 C7,3.23857625 9.23857625,1 12,1 C14.7614237,1 17,3.23857625 17,6 L17,9 Z M12,18 C10.8954305,18 10,17.1045695 10,16 C10,14.8954305 10.8954305,14 12,14 C13.1045695,14 14,14.8954305 14,16 C14,17.1045695 13.1045695,18 12,18 Z"/></svg>