<svg xmlns="http://www.w3.org/2000/svg" xmlns:xlink="http://www.w3.org/1999/xlink" width="24" height="24" viewBox="0 0 24 24"><path id="notification-a" d="M10.0200035,3.28395803 C10.0068199,3.19120234 10,3.09639761 10,3 C10,1.8954305 10.8954305,1 12,1 C13.1045695,1 14,1.8954305 14,3 C14,3.09639761 13.9931801,3.19120234 13.9799965,3.28395803 C16.8817592,4.13808456 19,6.82167146 19,10 L19,13.5857864 L20.7071068,15.2928932 C20.8946432,15.4804296 21,15.7347835 21,16 L21,17 C21,17.5522847 20.5522847,18 20,18 L4,18 C3.44771525,18 3,17.5522847 3,17 L3,16 C3,15.7347835 3.10535684,15.4804296 3.29289322,15.2928932 L5,13.5857864 L5,10 C5,6.82167146 7.11824076,4.13808456 10.0200035,3.28395803 Z M9.00939081,21.6870922 C8.63829079,21.278065 8.66903681,20.645647 9.07806397,20.2745469 C9.48709113,19.9034469 10.1195092,19.9341929 10.4906092,20.3432201 C10.8619268,20.7524871 11.4187064,21 12,21 C12.5816589,21 13.1323088,20.7519601 13.5061066,20.3358798 C13.8751976,19.9250388 14.5074574,19.8911938 14.9182983,20.2602847 C15.3291393,20.6293757 15.3629843,21.2616355 14.9938934,21.6724764 C14.2425962,22.5087572 13.1520346,23 12,23 C10.8535624,23 9.7591616,22.513491 9.00939081,21.6870922 Z M18.5857864,16 L17.2928932,14.7071068 C17.1053568,14.5195704 17,14.2652165 17,14 L17,10 C17,7.23857625 14.7614237,5 12,5 C9.23857625,5 7,7.23857625 7,10 L7,14 C7,14.2652165 6.89464316,14.5195704 6.70710678,14.7071068 L5.41421356,16 L18.5857864,16 Z"/></svg>