<svg xmlns="http://www.w3.org/2000/svg" xmlns:xlink="http://www.w3.org/1999/xlink" width="24" height="24" viewBox="0 0 24 24"><path id="new-payment-a" d="M19,18 L21,18 C21.5522847,18 22,18.4477153 22,19 C22,19.5522847 21.5522847,20 21,20 L19,20 L19,22 C19,22.5522847 18.5522847,23 18,23 C17.4477153,23 17,22.5522847 17,22 L17,20 L15,20 C14.4477153,20 14,19.5522847 14,19 C14,18.4477153 14.4477153,18 15,18 L17,18 L17,16 C17,15.4477153 17.4477153,15 18,15 C18.5522847,15 19,15.4477153 19,16 L19,18 Z M20,12 L14,12 C12.3431458,12 11,10.6568542 11,9 L11,4 L6,4 C5.44771525,4 5,4.44771525 5,5 L5,19 C5,19.5522847 5.44771525,20 6,20 L11,20 C11.5522847,20 12,20.4477153 12,21 C12,21.5522847 11.5522847,22 11,22 L6,22 C4.34314575,22 3,20.6568542 3,19 L3,5 C3,3.34314575 4.34314575,2 6,2 L13.1715729,2 C13.9672223,2 14.7302841,2.31607052 15.2928932,2.87867966 L20.1213203,7.70710678 C20.6839295,8.26971592 21,9.03277766 21,9.82842712 L21,11 C21,11.5522847 20.5522847,12 20,12 Z M19,10 L19,9.82842712 C19,9.56321063 18.8946432,9.30885672 18.7071068,9.12132034 L13.8786797,4.29289322 C13.6911433,4.10535684 13.4367894,4 13.1715729,4 L13,4 L13,9 C13,9.55228475 13.4477153,10 14,10 L19,10 Z"/></svg>