<svg xmlns="http://www.w3.org/2000/svg" xmlns:xlink="http://www.w3.org/1999/xlink" width="24" height="24" viewBox="0 0 24 24"><path id="notebook-with-tochka-a" d="M13,9 L13,11 C13,11.5522847 12.5522847,12 12,12 C11.4477153,12 11,11.5522847 11,11 L11,9 L10,9 C9.44771525,9 9,8.55228475 9,8 C9,7.44771525 9.44771525,7 10,7 L14,7 C14.5522847,7 15,7.44771525 15,8 C15,8.55228475 14.5522847,9 14,9 L13,9 Z M5,14 L16,14 C16.5522847,14 17,14.4477153 17,15 C17,15.5522847 16.5522847,16 16,16 L4.67703296,16 L3.47703296,19 L20.522967,19 L19.0715233,15.3713907 C19.0242752,15.2532704 19,15.1272194 19,15 L19,5 L5,5 L5,14 Z M3,14.8074176 L3,5 C3,3.8954305 3.8954305,3 5,3 L19,3 C20.1045695,3 21,3.8954305 21,5 L21,14.8074176 L22.9284767,19.6286093 C23.1912224,20.2854737 22.7074646,21 22,21 L2,21 C1.2925354,21 0.808777552,20.2854737 1.07152331,19.6286093 L3,14.8074176 Z"/></svg>