<svg xmlns="http://www.w3.org/2000/svg" xmlns:xlink="http://www.w3.org/1999/xlink" width="24" height="24" viewBox="0 0 24 24"><path id="redo-a" d="M19.9888871,11.5746735 C19.7677998,7.35412926 16.2755993,4 12,4 C7.581722,4 4,7.581722 4,12 C4,16.418278 7.581722,20 12,20 C12.5522847,20 13,20.4477153 13,21 C13,21.5522847 12.5522847,22 12,22 C6.4771525,22 2,17.5228475 2,12 C2,6.4771525 6.4771525,2 12,2 C17.3868237,2 21.7788275,6.25933014 21.9919037,11.5938827 L22.2928932,11.2928932 C22.6834175,10.9023689 23.3165825,10.9023689 23.7071068,11.2928932 C24.0976311,11.6834175 24.0976311,12.3165825 23.7071068,12.7071068 L21.7071068,14.7071068 C21.3165825,15.0976311 20.6834175,15.0976311 20.2928932,14.7071068 L18.2928932,12.7071068 C17.9023689,12.3165825 17.9023689,11.6834175 18.2928932,11.2928932 C18.6834175,10.9023689 19.3165825,10.9023689 19.7071068,11.2928932 L19.9888871,11.5746735 Z"/></svg>