<svg xmlns="http://www.w3.org/2000/svg" xmlns:xlink="http://www.w3.org/1999/xlink" width="24" height="24" viewBox="0 0 24 24"><path id="receipt-a" d="M20,2 C20.5522847,2 21,2.44771525 21,3 L21,19 C21,20.6568542 19.6568542,22 18,22 L6,22 C4.34314575,22 3,20.6568542 3,19 L3,3 C3,2.44771525 3.44771525,2 4,2 L7,2 C7.55228475,2 8,2.44771525 8,3 C8,3.78104858 8.21895142,4 9,4 C9.78104858,4 10,3.78104858 10,3 C10,2.44771525 10.4477153,2 11,2 L13,2 C13.5522847,2 14,2.44771525 14,3 C14,3.78104858 14.2189514,4 15,4 C15.7810486,4 16,3.78104858 16,3 C16,2.44771525 16.4477153,2 17,2 L20,2 Z M5,4 L5,19 C5,19.5522847 5.44771525,20 6,20 L18,20 C18.5522847,20 19,19.5522847 19,19 L19,4 L17.8787638,4 C17.5427894,5.27307126 16.5229394,6 15,6 C13.4770606,6 12.4572106,5.27307126 12.1212362,4 L11.8787638,4 C11.5427894,5.27307126 10.5229394,6 9,6 C7.47706059,6 6.45721058,5.27307126 6.12123619,4 L5,4 Z M9,16 C8.44771525,16 8,15.5522847 8,15 C8,14.4477153 8.44771525,14 9,14 L13,14 C13.5522847,14 14,14.4477153 14,15 C14,15.5522847 13.5522847,16 13,16 L9,16 Z M9,12 C8.44771525,12 8,11.5522847 8,11 C8,10.4477153 8.44771525,10 9,10 L15,10 C15.5522847,10 16,10.4477153 16,11 C16,11.5522847 15.5522847,12 15,12 L9,12 Z"/></svg>