<svg xmlns="http://www.w3.org/2000/svg" xmlns:xlink="http://www.w3.org/1999/xlink" width="24" height="24" viewBox="0 0 24 24"><path id="share-ios-a" d="M11,5.41421356 L9.70710678,6.70710678 C9.31658249,7.09763107 8.68341751,7.09763107 8.29289322,6.70710678 C7.90236893,6.31658249 7.90236893,5.68341751 8.29289322,5.29289322 L11.2928932,2.29289322 C11.6834175,1.90236893 12.3165825,1.90236893 12.7071068,2.29289322 L15.7071068,5.29289322 C16.0976311,5.68341751 16.0976311,6.31658249 15.7071068,6.70710678 C15.3165825,7.09763107 14.6834175,7.09763107 14.2928932,6.70710678 L13,5.41421356 L13,15 C13,15.5522847 12.5522847,16 12,16 C11.4477153,16 11,15.5522847 11,15 L11,5.41421356 Z M3,11 C3,10.4477153 3.44771525,10 4,10 C4.55228475,10 5,10.4477153 5,11 L5,19 C5,19.5522847 5.44771525,20 6,20 L18,20 C18.5522847,20 19,19.5522847 19,19 L19,11 C19,10.4477153 19.4477153,10 20,10 C20.5522847,10 21,10.4477153 21,11 L21,19 C21,20.6568542 19.6568542,22 18,22 L6,22 C4.34314575,22 3,20.6568542 3,19 L3,11 Z"/></svg>