<svg xmlns="http://www.w3.org/2000/svg" xmlns:xlink="http://www.w3.org/1999/xlink" width="24" height="24" viewBox="0 0 24 24"><path id="share-android-a" d="M8.68771804,14.961893 C7.97744959,15.6068489 7.03442814,16 6,16 C3.79171525,16 2,14.2082847 2,12 C2,9.79171525 3.79171525,8 6,8 C7.03442814,8 7.97744959,8.3931511 8.68771804,9.03810699 L14.0172145,6.37335878 C14.0058231,6.25042956 14,6.12589171 14,6 C14,3.79171525 15.7917153,2 18,2 C20.2082847,2 22,3.79171525 22,6 C22,8.20828475 20.2082847,10 18,10 C16.632853,10 15.4253702,9.31326482 14.7038608,8.26610357 L9.7914084,10.7223298 C9.92667451,11.123582 10,11.553267 10,12 C10,12.446733 9.92667451,12.876418 9.7914084,13.2776702 L14.7038608,15.7338964 C15.4253702,14.6867352 16.632853,14 18,14 C20.2082847,14 22,15.7917153 22,18 C22,20.2082847 20.2082847,22 18,22 C15.7917153,22 14,20.2082847 14,18 C14,17.8741083 14.0058231,17.7495704 14.0172145,17.6266412 L8.68771804,14.961893 Z M18,8 C19.1037153,8 20,7.10371525 20,6 C20,4.89628475 19.1037153,4 18,4 C16.8962847,4 16,4.89628475 16,6 C16,7.10371525 16.8962847,8 18,8 Z M6,14 C7.10371525,14 8,13.1037153 8,12 C8,10.8962847 7.10371525,10 6,10 C4.89628475,10 4,10.8962847 4,12 C4,13.1037153 4.89628475,14 6,14 Z M18,20 C19.1037153,20 20,19.1037153 20,18 C20,16.8962847 19.1037153,16 18,16 C16.8962847,16 16,16.8962847 16,18 C16,19.1037153 16.8962847,20 18,20 Z"/></svg>