<svg xmlns="http://www.w3.org/2000/svg" xmlns:xlink="http://www.w3.org/1999/xlink" width="24" height="24" viewBox="0 0 24 24"><path id="show-password-a" d="M12,21 C6.15590019,21 1,16.2123784 1,12 C1,7.7876216 6.15590019,3 12,3 C17.8440998,3 23,7.7876216 23,12 C23,16.2123784 17.8440998,21 12,21 Z M12,19 C16.7712848,19 21,15.0733359 21,12 C21,8.92666411 16.7712848,5 12,5 C7.2287152,5 3,8.92666411 3,12 C3,15.0733359 7.2287152,19 12,19 Z M12,16 C9.790861,16 8,14.209139 8,12 C8,9.790861 9.790861,8 12,8 C14.209139,8 16,9.790861 16,12 C16,14.209139 14.209139,16 12,16 Z M12,14 C13.1045695,14 14,13.1045695 14,12 C14,10.8954305 13.1045695,10 12,10 C10.8954305,10 10,10.8954305 10,12 C10,13.1045695 10.8954305,14 12,14 Z"/></svg>