<svg xmlns="http://www.w3.org/2000/svg" xmlns:xlink="http://www.w3.org/1999/xlink" width="24" height="24" viewBox="0 0 24 24"><path id="sent-statement-a" d="M19.5857864,20 L15,20 C14.4477153,20 14,19.5522847 14,19 C14,18.4477153 14.4477153,18 15,18 L19.5857864,18 L18.2928932,16.7071068 C17.9023689,16.3165825 17.9023689,15.6834175 18.2928932,15.2928932 C18.6834175,14.9023689 19.3165825,14.9023689 19.7071068,15.2928932 L22.7071068,18.2928932 C23.0976311,18.6834175 23.0976311,19.3165825 22.7071068,19.7071068 L19.7071068,22.7071068 C19.3165825,23.0976311 18.6834175,23.0976311 18.2928932,22.7071068 C17.9023689,22.3165825 17.9023689,21.6834175 18.2928932,21.2928932 L19.5857864,20 Z M11,20 C11.5522847,20 12,20.4477153 12,21 C12,21.5522847 11.5522847,22 11,22 L6,22 C4.34314575,22 3,20.6568542 3,19 L3,5 C3,3.34314575 4.34314575,2 6,2 L18,2 C19.6568542,2 21,3.34314575 21,5 L21,12 C21,12.5522847 20.5522847,13 20,13 C19.4477153,13 19,12.5522847 19,12 L19,5 C19,4.44771525 18.5522847,4 18,4 L6,4 C5.44771525,4 5,4.44771525 5,5 L5,19 C5,19.5522847 5.44771525,20 6,20 L11,20 Z M9,17 C8.44771525,17 8,16.5522847 8,16 C8,15.4477153 8.44771525,15 9,15 L11,15 C11.5522847,15 12,15.4477153 12,16 C12,16.5522847 11.5522847,17 11,17 L9,17 Z M9,13 C8.44771525,13 8,12.5522847 8,12 C8,11.4477153 8.44771525,11 9,11 L15,11 C15.5522847,11 16,11.4477153 16,12 C16,12.5522847 15.5522847,13 15,13 L9,13 Z M9,9 C8.44771525,9 8,8.55228475 8,8 C8,7.44771525 8.44771525,7 9,7 L15,7 C15.5522847,7 16,7.44771525 16,8 C16,8.55228475 15.5522847,9 15,9 L9,9 Z"/></svg>