<svg xmlns="http://www.w3.org/2000/svg" xmlns:xlink="http://www.w3.org/1999/xlink" width="24" height="24" viewBox="0 0 24 24"><path id="transfer-from-card-a" d="M20,11 L4,11 L4,17 C4,17.5522847 4.44771525,18 5,18 L11,18 C11.5522847,18 12,18.4477153 12,19 C12,19.5522847 11.5522847,20 11,20 L5,20 C3.34314575,20 2,18.6568542 2,17 L2,7 C2,5.34314575 3.34314575,4 5,4 L19,4 C20.6568542,4 22,5.34314575 22,7 L22,12 C22,12.5522847 21.5522847,13 21,13 C20.4477153,13 20,12.5522847 20,12 L20,11 Z M20,9 L20,7 C20,6.44771525 19.5522847,6 19,6 L5,6 C4.44771525,6 4,6.44771525 4,7 L4,9 L20,9 Z M19.5857864,20 L15,20 C14.4477153,20 14,19.5522847 14,19 C14,18.4477153 14.4477153,18 15,18 L19.5857864,18 L18.2928932,16.7071068 C17.9023689,16.3165825 17.9023689,15.6834175 18.2928932,15.2928932 C18.6834175,14.9023689 19.3165825,14.9023689 19.7071068,15.2928932 L22.7071068,18.2928932 C23.0976311,18.6834175 23.0976311,19.3165825 22.7071068,19.7071068 L19.7071068,22.7071068 C19.3165825,23.0976311 18.6834175,23.0976311 18.2928932,22.7071068 C17.9023689,22.3165825 17.9023689,21.6834175 18.2928932,21.2928932 L19.5857864,20 Z"/></svg>