<svg xmlns="http://www.w3.org/2000/svg" xmlns:xlink="http://www.w3.org/1999/xlink" width="24" height="24" viewBox="0 0 24 24"><path id="warning-a" d="M8.82842712,2 L15.1715729,2 C15.9672223,2 16.7302841,2.31607052 17.2928932,2.87867966 L21.1213203,6.70710678 C21.6839295,7.26971592 22,8.03277766 22,8.82842712 L22,15.1715729 C22,15.9672223 21.6839295,16.7302841 21.1213203,17.2928932 L17.2928932,21.1213203 C16.7302841,21.6839295 15.9672223,22 15.1715729,22 L8.82842712,22 C8.03277766,22 7.26971592,21.6839295 6.70710678,21.1213203 L2.87867966,17.2928932 C2.31607052,16.7302841 2,15.9672223 2,15.1715729 L2,8.82842712 C2,8.03277766 2.31607052,7.26971592 2.87867966,6.70710678 L6.70710678,2.87867966 C7.26971592,2.31607052 8.03277766,2 8.82842712,2 Z M8.82842712,4 C8.56321063,4 8.30885672,4.10535684 8.12132034,4.29289322 L4.29289322,8.12132034 C4.10535684,8.30885672 4,8.56321063 4,8.82842712 L4,15.1715729 C4,15.4367894 4.10535684,15.6911433 4.29289322,15.8786797 L8.12132034,19.7071068 C8.30885672,19.8946432 8.56321063,20 8.82842712,20 L15.1715729,20 C15.4367894,20 15.6911433,19.8946432 15.8786797,19.7071068 L19.7071068,15.8786797 C19.8946432,15.6911433 20,15.4367894 20,15.1715729 L20,8.82842712 C20,8.56321063 19.8946432,8.30885672 19.7071068,8.12132034 L15.8786797,4.29289322 C15.6911433,4.10535684 15.4367894,4 15.1715729,4 L8.82842712,4 Z M11,8 C11,7.44771525 11.4477153,7 12,7 C12.5522847,7 13,7.44771525 13,8 L13,12 C13,12.5522847 12.5522847,13 12,13 C11.4477153,13 11,12.5522847 11,12 L11,8 Z M12,17 C11.4477153,17 11,16.5522847 11,16 C11,15.4477153 11.4477153,15 12,15 C12.5522847,15 13,15.4477153 13,16 C13,16.5522847 12.5522847,17 12,17 Z"/></svg>