<svg xmlns="http://www.w3.org/2000/svg" xmlns:xlink="http://www.w3.org/1999/xlink" width="30" height="30" viewBox="0 0 30 30"><path id="analytics-a" d="M16,25 L16,6 C16,4.34314575 17.3431458,3 19,3 L23,3 C24.6568542,3 26,4.34314575 26,6 L26,25 L27,25 C27.5522847,25 28,25.4477153 28,26 C28,26.5522847 27.5522847,27 27,27 L3,27 C2.44771525,27 2,26.5522847 2,26 L2,19 C2,17.3431458 3.34314575,16 5,16 L6,16 C6.55228475,16 7,16.4477153 7,17 C7,17.5522847 6.55228475,18 6,18 L5,18 C4.44771525,18 4,18.4477153 4,19 L4,25 L9,25 L9,13 C9,11.3431458 10.3431458,10 12,10 L13,10 C13.5522847,10 14,10.4477153 14,11 C14,11.5522847 13.5522847,12 13,12 L12,12 C11.4477153,12 11,12.4477153 11,13 L11,25 L16,25 Z M18,25 L24,25 L24,6 C24,5.44771525 23.5522847,5 23,5 L19,5 C18.4477153,5 18,5.44771525 18,6 L18,25 Z"/></svg>