<svg xmlns="http://www.w3.org/2000/svg" xmlns:xlink="http://www.w3.org/1999/xlink" width="30" height="30" viewBox="0 0 30 30"><path id="cross-a" d="M16.4142136,15 L23.7071068,22.2928932 C24.0976311,22.6834175 24.0976311,23.3165825 23.7071068,23.7071068 C23.3165825,24.0976311 22.6834175,24.0976311 22.2928932,23.7071068 L15,16.4142136 L7.70710678,23.7071068 C7.31658249,24.0976311 6.68341751,24.0976311 6.29289322,23.7071068 C5.90236893,23.3165825 5.90236893,22.6834175 6.29289322,22.2928932 L13.5857864,15 L6.29289322,7.70710678 C5.90236893,7.31658249 5.90236893,6.68341751 6.29289322,6.29289322 C6.68341751,5.90236893 7.31658249,5.90236893 7.70710678,6.29289322 L15,13.5857864 L22.2928932,6.29289322 C22.6834175,5.90236893 23.3165825,5.90236893 23.7071068,6.29289322 C24.0976311,6.68341751 24.0976311,7.31658249 23.7071068,7.70710678 L16.4142136,15 Z"/></svg>