<svg xmlns="http://www.w3.org/2000/svg" xmlns:xlink="http://www.w3.org/1999/xlink" width="30" height="30" viewBox="0 0 30 30"><path id="feed-a" d="M5,27 C3.34314575,27 2,25.6568542 2,24 L2,6 C2,4.34314575 3.34314575,3 5,3 L19,3 C20.6568542,3 22,4.34314575 22,6 L22,23 C22,24.1045695 22.8954305,25 24,25 C25.1045695,25 26,24.1045695 26,23 L26,19 C26,18.4477153 25.5522847,18 25,18 C24.4477153,18 24,17.5522847 24,17 C24,16.4477153 24.4477153,16 25,16 C26.6568542,16 28,17.3431458 28,19 L28,23 C28,25.209139 26.209139,27 24,27 L5,27 Z M20,23 L20,6 C20,5.44771525 19.5522847,5 19,5 L5,5 C4.44771525,5 4,5.44771525 4,6 L4,24 C4,24.5522847 4.44771525,25 5,25 L20.5351288,25 C20.1947886,24.4116533 20,23.7285743 20,23 Z M8,16 C7.44771525,16 7,15.5522847 7,15 C7,14.4477153 7.44771525,14 8,14 L16,14 C16.5522847,14 17,14.4477153 17,15 C17,15.5522847 16.5522847,16 16,16 L8,16 Z M8,21 C7.44771525,21 7,20.5522847 7,20 C7,19.4477153 7.44771525,19 8,19 L16,19 C16.5522847,19 17,19.4477153 17,20 C17,20.5522847 16.5522847,21 16,21 L8,21 Z M8,11 C7.44771525,11 7,10.5522847 7,10 C7,9.44771525 7.44771525,9 8,9 L16,9 C16.5522847,9 17,9.44771525 17,10 C17,10.5522847 16.5522847,11 16,11 L8,11 Z"/></svg>