<svg xmlns="http://www.w3.org/2000/svg" xmlns:xlink="http://www.w3.org/1999/xlink" width="18" height="18" viewBox="0 0 18 18"><path id="information-a" d="M9,1 C13.4022847,1 17,4.59771525 17,9 C17,13.4022847 13.4022847,17 9,17 C4.59771525,17 1,13.4022847 1,9 C1,4.59771525 4.59771525,1 9,1 Z M9,3 C5.70228475,3 3,5.70228475 3,9 C3,12.2977153 5.70228475,15 9,15 C12.2977153,15 15,12.2977153 15,9 C15,5.70228475 12.2977153,3 9,3 Z M8,9 C8,8.44771525 8.44771525,8 9,8 C9.55228475,8 10,8.44771525 10,9 L10,12 C10,12.5522847 9.55228475,13 9,13 C8.44771525,13 8,12.5522847 8,12 L8,9 Z M9,7 C8.44771525,7 8,6.55228475 8,6 C8,5.44771525 8.44771525,5 9,5 C9.55228475,5 10,5.44771525 10,6 C10,6.55228475 9.55228475,7 9,7 Z"/></svg>