<svg xmlns="http://www.w3.org/2000/svg" xmlns:xlink="http://www.w3.org/1999/xlink" width="18" height="18" viewBox="0 0 18 18"><path id="prohibited-a" d="M13.885243,12.4710294 C14.5863555,11.4892812 15,10.2902125 15,9 C15,5.70228475 12.2977153,3 9,3 C7.70978751,3 6.51071884,3.41364453 5.52897058,4.11475702 L13.885243,12.4710294 Z M12.4710294,13.885243 L4.11475702,5.52897058 C3.41364453,6.51071884 3,7.70978751 3,9 C3,12.2977153 5.70228475,15 9,15 C10.2902125,15 11.4892812,14.5863555 12.4710294,13.885243 Z M9,1 C13.4022847,1 17,4.59771525 17,9 C17,13.4022847 13.4022847,17 9,17 C4.59771525,17 1,13.4022847 1,9 C1,4.59771525 4.59771525,1 9,1 Z"/></svg>