<svg xmlns="http://www.w3.org/2000/svg" xmlns:xlink="http://www.w3.org/1999/xlink" width="18" height="18" viewBox="0 0 18 18"><path id="warning-a" d="M6,1 L12,1 C12.2652165,1 12.5195704,1.10535684 12.7071068,1.29289322 L16.7071068,5.29289322 C16.8946432,5.4804296 17,5.73478351 17,6 L17,12 C17,12.2652165 16.8946432,12.5195704 16.7071068,12.7071068 L12.7071068,16.7071068 C12.5195704,16.8946432 12.2652165,17 12,17 L6,17 C5.73478351,17 5.4804296,16.8946432 5.29289322,16.7071068 L1.29289322,12.7071068 C1.10535684,12.5195704 1,12.2652165 1,12 L1,6 C1,5.73478351 1.10535684,5.4804296 1.29289322,5.29289322 L5.29289322,1.29289322 C5.4804296,1.10535684 5.73478351,1 6,1 Z M6.41421356,3 L3,6.41421356 L3,11.5857864 L6.41421356,15 L11.5857864,15 L15,11.5857864 L15,6.41421356 L11.5857864,3 L6.41421356,3 Z M9,13 C8.44771525,13 8,12.5522847 8,12 C8,11.4477153 8.44771525,11 9,11 C9.55228475,11 10,11.4477153 10,12 C10,12.5522847 9.55228475,13 9,13 Z M8,6 C8,5.44771525 8.44771525,5 9,5 C9.55228475,5 10,5.44771525 10,6 L10,9 C10,9.55228475 9.55228475,10 9,10 C8.44771525,10 8,9.55228475 8,9 L8,6 Z"/></svg>