<svg xmlns="http://www.w3.org/2000/svg" xmlns:xlink="http://www.w3.org/1999/xlink" width="18" height="18" viewBox="0 0 18 18"><path id="watch-a" d="M9,1 C13.4022847,1 17,4.59771525 17,9 C17,13.4022847 13.4022847,17 9,17 C4.59771525,17 1,13.4022847 1,9 C1,4.59771525 4.59771525,1 9,1 Z M9,3 C5.70228475,3 3,5.70228475 3,9 C3,12.2977153 5.70228475,15 9,15 C12.2977153,15 15,12.2977153 15,9 C15,5.70228475 12.2977153,3 9,3 Z M9,9 L11,9 C11.5522847,9 12,9.44771525 12,10 C12,10.5522847 11.5522847,11 11,11 L8,11 C7.44771525,11 7,10.5522847 7,10 L7,7 C7,6.44771525 7.44771525,6 8,6 C8.55228475,6 9,6.44771525 9,7 L9,9 Z"/></svg>