<svg xmlns="http://www.w3.org/2000/svg" xmlns:xlink="http://www.w3.org/1999/xlink" width="30" height="30" viewBox="0 0 30 30"><path id="chat-a" d="M6,21.6492127 C2.33243504,19.9019222 0,16.6617218 0,13 C0,7.42790145 5.41187954,3 12,3 C16.0424695,3 19.7660973,4.6466737 21.9764222,7.36978593 C22.3244798,7.79859165 22.2590205,8.42836381 21.8302148,8.77642143 C21.4014091,9.12447904 20.771637,9.05901978 20.4235793,8.63021407 C18.6067763,6.39191938 15.4592252,5 12,5 C6.43785596,5 2,8.63097306 2,13 C2,15.9991809 4.0673314,18.7019052 7.3829097,20.0762142 C7.75646381,20.2310526 8,20.5956269 8,21 L8,23.6273169 L10.4016766,21.284218 C10.796992,20.8985444 11.4301088,20.9063607 11.8157824,21.3016762 C12.201456,21.6969917 12.1936397,22.3301084 11.7983242,22.715782 L7.69832382,26.715782 C7.06488193,27.333774 6,26.8849648 6,26 L6,21.6492127 Z M27.0497706,27 C27.0497706,27.8951539 25.963844,28.3393719 25.336469,27.7008572 L22.6234125,24.9396274 C22.2530632,24.9797412 21.8780175,25 21.5,25 C16.8484896,25 13,21.9212083 13,18 C13,14.0787917 16.8484896,11 21.5,11 C26.1515104,11 30,14.0787917 30,18 C30,20.0890828 28.8924395,22.0031925 27.0497706,23.3084686 L27.0497706,27 Z M25.0497706,22.770273 C25.0497706,22.4219675 25.2310031,22.098755 25.5281749,21.9170803 C27.0919647,20.961064 28,19.5241806 28,18 C28,15.2937913 25.1327609,13 21.5,13 C17.8672391,13 15,15.2937913 15,18 C15,20.7062087 17.8672391,23 21.5,23 C21.9503325,23 22.3943487,22.9645484 22.8275531,22.894873 C23.1474944,22.8434146 23.472536,22.9501796 23.699651,23.1813272 L25.0497706,24.5554197 L25.0497706,22.770273 Z"/></svg>