<svg xmlns="http://www.w3.org/2000/svg" xmlns:xlink="http://www.w3.org/1999/xlink" width="30" height="30" viewBox="0 0 30 30"><path id="more-a" d="M5,18 C3.34314575,18 2,16.6568542 2,15 C2,13.3431458 3.34314575,12 5,12 C6.65685425,12 8,13.3431458 8,15 C8,16.6568542 6.65685425,18 5,18 Z M15,18 C13.3431458,18 12,16.6568542 12,15 C12,13.3431458 13.3431458,12 15,12 C16.6568542,12 18,13.3431458 18,15 C18,16.6568542 16.6568542,18 15,18 Z M25,18 C23.3431458,18 22,16.6568542 22,15 C22,13.3431458 23.3431458,12 25,12 C26.6568542,12 28,13.3431458 28,15 C28,16.6568542 26.6568542,18 25,18 Z M5,16 C5.55228475,16 6,15.5522847 6,15 C6,14.4477153 5.55228475,14 5,14 C4.44771525,14 4,14.4477153 4,15 C4,15.5522847 4.44771525,16 5,16 Z M15,16 C15.5522847,16 16,15.5522847 16,15 C16,14.4477153 15.5522847,14 15,14 C14.4477153,14 14,14.4477153 14,15 C14,15.5522847 14.4477153,16 15,16 Z M25,16 C25.5522847,16 26,15.5522847 26,15 C26,14.4477153 25.5522847,14 25,14 C24.4477153,14 24,14.4477153 24,15 C24,15.5522847 24.4477153,16 25,16 Z"/></svg>