<svg xmlns="http://www.w3.org/2000/svg" xmlns:xlink="http://www.w3.org/1999/xlink" width="30" height="30" viewBox="0 0 30 30"><path id="services-a" d="M6,3 L11,3 C12.6568542,3 14,4.34314575 14,6 L14,11 C14,12.6568542 12.6568542,14 11,14 L6,14 C4.34314575,14 3,12.6568542 3,11 L3,6 C3,4.34314575 4.34314575,3 6,3 Z M19,3 L24,3 C25.6568542,3 27,4.34314575 27,6 L27,11 C27,12.6568542 25.6568542,14 24,14 L19,14 C17.3431458,14 16,12.6568542 16,11 L16,6 C16,4.34314575 17.3431458,3 19,3 Z M19,16 L24,16 C25.6568542,16 27,17.3431458 27,19 L27,24 C27,25.6568542 25.6568542,27 24,27 L19,27 C17.3431458,27 16,25.6568542 16,24 L16,19 C16,17.3431458 17.3431458,16 19,16 Z M6,16 L11,16 C12.6568542,16 14,17.3431458 14,19 L14,24 C14,25.6568542 12.6568542,27 11,27 L6,27 C4.34314575,27 3,25.6568542 3,24 L3,19 C3,17.3431458 4.34314575,16 6,16 Z M6,5 C5.44771525,5 5,5.44771525 5,6 L5,11 C5,11.5522847 5.44771525,12 6,12 L11,12 C11.5522847,12 12,11.5522847 12,11 L12,6 C12,5.44771525 11.5522847,5 11,5 L6,5 Z M19,5 C18.4477153,5 18,5.44771525 18,6 L18,11 C18,11.5522847 18.4477153,12 19,12 L24,12 C24.5522847,12 25,11.5522847 25,11 L25,6 C25,5.44771525 24.5522847,5 24,5 L19,5 Z M19,18 C18.4477153,18 18,18.4477153 18,19 L18,24 C18,24.5522847 18.4477153,25 19,25 L24,25 C24.5522847,25 25,24.5522847 25,24 L25,19 C25,18.4477153 24.5522847,18 24,18 L19,18 Z M6,18 C5.44771525,18 5,18.4477153 5,19 L5,24 C5,24.5522847 5.44771525,25 6,25 L11,25 C11.5522847,25 12,24.5522847 12,24 L12,19 C12,18.4477153 11.5522847,18 11,18 L6,18 Z"/></svg>